<svg xmlns:xlink="http://www.w3.org/1999/xlink" xmlns="http://www.w3.org/2000/svg" style="color: rgb(87, 165, 90); width: 18px; height: 18px; fill: currentcolor;" width="18" height="18"><defs><symbol xmlns="http://www.w3.org/2000/svg" viewBox="0 0 6.35 7.938" id="arrow-down">
        <path style="line-height:normal;font-variant-ligatures:normal;font-variant-position:normal;font-variant-caps:normal;font-variant-numeric:normal;font-variant-alternates:normal;font-feature-settings:normal;text-indent:0;text-align:start;text-decoration-line:none;text-decoration-style:solid;text-decoration-color:#000;text-transform:none;text-orientation:mixed;white-space:normal;shape-padding:0;isolation:auto;mix-blend-mode:normal;solid-color:#000;solid-opacity:1" d="M3.17.526a.265.265 0 00-.26.268v4.125L.982 2.987a.265.265 0 00-.19-.08.265.265 0 00-.185.455l2.38 2.38a.265.265 0 00.25.071.265.265 0 00.025-.007.265.265 0 00.025-.01.265.265 0 00.023-.012.265.265 0 00.002-.001.265.265 0 00.02-.013.265.265 0 00.017-.014.265.265 0 00.004-.004.265.265 0 00.01-.01l.009-.009 2.372-2.372a.265.265 0 10-.373-.375l-1.93 1.93V.793a.265.265 0 00-.27-.268z" font-weight="400" font-family="sans-serif" overflow="visible"></path>
        <text y="21.35" font-size="5" font-weight="bold" font-family="'Helvetica Neue', Helvetica, Arial-Unicode, Arial, Sans-serif">Created by Handicon</text>
        <text y="26.35" font-size="5" font-weight="bold" font-family="'Helvetica Neue', Helvetica, Arial-Unicode, Arial, Sans-serif">from the Noun Project</text>
    </symbol></defs><g fill="#57A55A">
        <path style="line-height:normal;font-variant-ligatures:normal;font-variant-position:normal;font-variant-caps:normal;font-variant-numeric:normal;font-variant-alternates:normal;font-feature-settings:normal;text-indent:0;text-align:start;text-decoration-line:none;text-decoration-style:solid;text-decoration-color:#000;text-transform:none;text-orientation:mixed;white-space:normal;shape-padding:0;isolation:auto;mix-blend-mode:normal;solid-color:#000;solid-opacity:1" d="M3.17.526a.265.265 0 00-.26.268v4.125L.982 2.987a.265.265 0 00-.19-.08.265.265 0 00-.185.455l2.38 2.38a.265.265 0 00.25.071.265.265 0 00.025-.007.265.265 0 00.025-.01.265.265 0 00.023-.012.265.265 0 00.002-.001.265.265 0 00.02-.013.265.265 0 00.017-.014.265.265 0 00.004-.004.265.265 0 00.01-.01l.009-.009 2.372-2.372a.265.265 0 10-.373-.375l-1.93 1.93V.793a.265.265 0 00-.27-.268z" font-weight="400" font-family="sans-serif" overflow="visible"></path>
        <text y="21.35" font-size="5" font-weight="bold" font-family="'Helvetica Neue', Helvetica, Arial-Unicode, Arial, Sans-serif">Created by Handicon</text>
        <text y="26.35" font-size="5" font-weight="bold" font-family="'Helvetica Neue', Helvetica, Arial-Unicode, Arial, Sans-serif">from the Noun Project</text>
    </g></svg>